<svg width="98" height="57" viewBox="0 0 98 57" fill="none" xmlns="http://www.w3.org/2000/svg">
<g clip-path="url(#clip0_21_135)">
<path d="M1.12201 0.183594H24.0116C28.8165 0.183594 32.671 1.54573 35.575 4.27C38.4792 6.99426 39.9313 11.5914 39.9313 18.0616C39.9313 22.5933 39.2713 26.182 37.9513 28.8277C36.631 31.4734 34.77 33.3725 32.3674 34.5251C29.965 35.6514 27.1401 36.2147 23.8927 36.2147H9.12148V57.0002H1.12201V0.183594ZM24.0512 30.2029C26.3744 30.2029 28.0905 29.6528 29.1993 28.5526C30.3082 27.4263 31.0342 25.9724 31.3774 24.1912C31.747 22.4099 31.9318 20.5501 31.9318 18.6117C31.9318 16.7518 31.7866 14.8658 31.4962 12.9536C31.2058 11.0414 30.5194 9.44349 29.4369 8.15991C28.3809 6.85019 26.6516 6.19532 24.2492 6.19532H9.12148V30.2029H24.0512ZM53.3958 0.183594H61.3554V25.2914H89.1556V0.183594H97.1156V57.0002H89.1556V31.1066H61.3554V57.0002H53.3958V0.183594Z" fill="#9747FF"/>
</g>
<defs>
<clipPath id="clip0_21_135">
<rect width="98" height="57" fill="white"/>
</clipPath>
</defs>
</svg>
